<svg width="24" height="24" viewBox="0 0 24 24" fill="none" xmlns="http://www.w3.org/2000/svg">
<path fill-rule="evenodd" clip-rule="evenodd" d="M13.4066 3.6888C13.1141 2.10373 10.9359 2.10373 10.6434 3.6888C10.4359 4.8132 9.12557 5.26609 8.31479 4.49316L8.18932 4.37354C7.06802 3.30457 5.35847 4.64623 6.03228 6.06563C6.5173 7.08734 5.71575 8.2612 4.63043 8.11769L4.52725 8.10405C3.03098 7.90619 2.39314 10.0223 3.72932 10.7512C4.69646 11.2788 4.69646 12.7212 3.72932 13.2488C2.39314 13.9777 3.03098 16.0938 4.52725 15.896L4.63043 15.8823C5.71575 15.7388 6.5173 16.9127 6.03228 17.9344C5.35847 19.3538 7.06802 20.6954 8.18932 19.6265L8.31479 19.5068C9.12557 18.7339 10.4359 19.1868 10.6434 20.3112C10.9359 21.8963 13.1141 21.8963 13.4066 20.3112C13.6141 19.1868 14.9244 18.7339 15.7352 19.5068L15.8607 19.6265C16.982 20.6954 18.6915 19.3538 18.0177 17.9344C17.5327 16.9127 18.3342 15.7388 19.4196 15.8823L19.5228 15.896C21.019 16.0938 21.6569 13.9777 20.3207 13.2488C19.3535 12.7212 19.3535 11.2788 20.3207 10.7512C21.6569 10.0223 21.019 7.90619 19.5228 8.10405L19.4196 8.11769C18.3343 8.2612 17.5327 7.08734 18.0177 6.06563C18.6915 4.64623 16.982 3.30457 15.8607 4.37354L15.7352 4.49316C14.9244 5.2661 13.6141 4.8132 13.4066 3.6888ZM14.9403 9.35362C15.3928 9.6909 15.4845 10.3289 15.1451 10.7786L12.2091 14.4429C12.031 14.6789 11.7585 14.8265 11.4623 14.8474C11.1662 14.8684 10.8755 14.7605 10.6655 14.5519L8.99998 12.8143C8.60001 12.4168 8.60001 11.7723 8.99998 11.3748C9.39995 10.9774 10.0484 10.9774 10.4484 11.3748L11.2789 12.2826L13.5064 9.55719C13.8458 9.10748 14.4878 9.01634 14.9403 9.35362Z" fill="#10A8E5"/>
</svg>
